<svg width="2496" height="439" viewBox="0 0 2496 439" fill="none" xmlns="http://www.w3.org/2000/svg">
<path opacity="0.56" d="M672.355 219.296L585.93 132.669L629.109 46.1084L769.554 186.824C778.152 195.444 782.98 207.122 782.98 219.296C782.98 231.471 778.152 243.149 769.554 251.769L596.704 424.957C592.453 429.218 587.403 432.599 581.844 434.905C576.285 437.212 570.325 438.399 564.307 438.399C558.288 438.399 552.329 437.212 546.769 434.905C541.21 432.599 536.161 429.218 531.91 424.957C523.317 416.338 518.492 404.664 518.492 392.493C518.492 380.322 523.317 368.648 531.91 360.029L672.355 219.296Z" fill="#A0A1A3"/>
<path d="M531.927 13.4499C536.178 9.18655 541.229 5.80398 546.789 3.496C552.35 1.18803 558.311 0 564.332 0C570.353 0 576.314 1.18803 581.875 3.496C587.436 5.80398 592.486 9.18655 596.737 13.4499L629.159 45.9395L251.07 424.805C246.819 429.069 241.769 432.451 236.208 434.759C230.647 437.067 224.686 438.255 218.665 438.255C212.645 438.255 206.683 437.067 201.122 434.759C195.562 432.451 190.511 429.069 186.26 424.805L153.855 392.316L531.927 13.4499ZM369.901 132.534L305.09 197.479L218.648 110.851L110.625 219.128L197.05 305.739L153.855 392.316L13.4265 251.6C4.82846 242.98 0 231.303 0 219.128C0 206.953 4.82846 195.275 13.4265 186.655L186.26 13.4499C190.511 9.18655 195.562 5.80398 201.122 3.496C206.683 1.18803 212.645 0 218.665 0C224.686 0 230.647 1.18803 236.208 3.496C241.769 5.80398 246.819 9.18655 251.07 13.4499L369.901 132.534Z" fill="white"/>
<path fill-rule="evenodd" clip-rule="evenodd" d="M975.384 148.677V295.792H1056.19L1073.33 344.831H975.384C968.955 344.82 962.591 343.542 956.656 341.072C950.721 338.602 945.331 334.986 940.793 330.433C936.255 325.879 932.658 320.476 930.208 314.533C927.758 308.589 926.503 302.221 926.514 295.792V148.677C926.503 142.248 927.758 135.88 930.208 129.937C932.658 123.993 936.255 118.59 940.793 114.036C945.331 109.483 950.721 105.868 956.656 103.397C962.591 100.927 968.955 99.6496 975.384 99.6385H1056.19V148.677H1073.33V50.5832C1073.32 47.3663 1073.95 44.18 1075.18 41.2065C1076.41 38.233 1078.21 35.5305 1080.48 33.2535C1082.75 30.9764 1085.45 29.1695 1088.42 27.9359C1091.39 26.7023 1094.58 26.0662 1097.79 26.064H1122.26V320.295C1122.27 323.513 1121.64 326.7 1120.41 329.675C1119.18 332.65 1117.38 335.353 1115.1 337.63C1112.83 339.907 1110.13 341.714 1107.16 342.947C1104.18 344.179 1101 344.814 1097.78 344.814L1073.33 344.831V148.677H975.384ZM1220.07 344.831C1207.08 344.808 1194.64 339.63 1185.47 330.434C1176.3 321.238 1171.16 308.777 1171.18 295.792V246.754C1171.17 240.324 1172.43 233.954 1174.88 228.01C1177.33 222.065 1180.93 216.661 1185.47 212.107C1190.01 207.554 1195.4 203.939 1201.34 201.469C1207.27 199 1213.64 197.724 1220.07 197.715H1300.87V246.754H1317.99V148.677H1183.41V124.158C1183.4 117.667 1185.97 111.438 1190.55 106.84C1195.13 102.242 1201.35 99.6519 1207.84 99.6385H1317.99C1345.01 99.6385 1366.93 121.591 1366.93 148.677V320.311C1366.94 323.528 1366.31 326.715 1365.08 329.688C1363.85 332.662 1362.05 335.364 1359.78 337.641C1357.51 339.918 1354.81 341.725 1351.84 342.959C1348.86 344.192 1345.68 344.828 1342.46 344.831H1317.99V246.754H1220.05V295.792H1300.87L1317.99 344.831H1220.07ZM1415.87 344.831V124.158C1415.86 117.667 1418.43 111.438 1423.01 106.84C1427.59 102.242 1433.81 99.6519 1440.3 99.6385H1464.74V320.311C1464.75 326.802 1462.18 333.031 1457.6 337.629C1453.01 342.227 1446.79 344.817 1440.3 344.831H1415.87ZM1464.74 50.752C1464.74 57.5911 1462.39 63.3663 1457.71 68.0607C1453.02 72.7721 1447.28 75.1193 1440.46 75.1193C1433.63 75.1193 1427.84 72.7552 1423.06 68.0607C1420.73 65.8308 1418.89 63.141 1417.65 60.1615C1416.41 57.1821 1415.8 53.9779 1415.87 50.752C1415.87 43.7104 1418.27 37.8339 1423.06 33.1225C1427.84 28.4281 1433.65 26.0808 1440.46 26.0808C1447.26 26.0808 1453.02 28.4281 1457.71 33.1225C1462.39 37.8339 1464.74 43.7104 1464.74 50.752ZM1513.74 344.831V50.5832C1513.73 44.0922 1516.3 37.8632 1520.88 33.2654C1525.47 28.6677 1531.69 26.0774 1538.18 26.064H1562.61V320.295C1562.62 326.786 1560.05 333.015 1555.47 337.612C1550.89 342.21 1544.67 344.8 1538.18 344.814L1513.74 344.831ZM1678.64 344.915L1612.66 137.414C1610.8 131.18 1611.48 124.461 1614.55 118.726C1617.62 112.99 1622.84 108.702 1629.06 106.798L1652.31 99.6385L1706.13 275.866L1754.59 116.998C1755.5 113.93 1757.01 111.072 1759.03 108.59C1761.05 106.109 1763.55 104.052 1766.37 102.538C1769.19 101.025 1772.28 100.085 1775.46 99.7724C1778.65 99.4602 1781.86 99.782 1784.92 100.719L1807.35 107.879L1724.25 383.67C1721.21 393.699 1715.02 402.486 1706.6 408.733C1698.19 414.981 1687.99 418.36 1677.51 418.371H1637.12C1623.61 418.371 1612.66 407.395 1612.66 393.869V369.35H1653.29C1666.73 369.35 1678.59 358.424 1678.64 344.915Z" fill="white"/>
<path opacity="0.56" d="M1887.07 348.022V313.371H1851.54V348.022H1887.07ZM1993.39 350.285C2010.61 350.285 2025.22 345.962 2037.17 337.333C2049.13 328.704 2057.47 317.154 2062.22 302.682V348.022H2091.62V108.403H2062.22V215.582C2057.49 201.11 2049.13 189.576 2037.17 180.93C2025.22 172.285 2010.63 167.978 1993.39 167.978C1977.67 167.978 1963.67 171.643 1951.37 178.988C1939.1 186.334 1929.45 196.905 1922.46 210.735C1915.47 224.565 1911.96 240.726 1911.96 259.301C1911.96 277.876 1915.46 293.986 1922.46 307.698C1929.45 321.409 1939.1 331.93 1951.37 339.275C1963.65 346.621 1977.67 350.285 1993.39 350.285ZM2001.8 324.381C1983.69 324.381 1969.21 318.606 1958.33 307.056C1947.46 295.505 1942 279.581 1942 259.301C1942 239.02 1947.46 223.079 1958.33 211.529C1969.21 199.978 1983.69 194.203 2001.8 194.203C2013.41 194.203 2023.82 196.854 2032.97 202.14C2042.12 207.425 2049.28 215.041 2054.47 224.97C2059.63 234.9 2062.22 246.332 2062.22 259.301C2062.22 272.253 2059.63 283.617 2054.45 293.462C2049.59 302.946 2042.14 310.857 2032.97 316.276C2023.82 321.68 2013.41 324.381 2001.8 324.381ZM2217 350.285C2231.86 350.285 2245.2 347.583 2257.05 342.18C2268.43 337.155 2278.38 329.365 2285.98 319.518C2293.41 309.808 2298.21 298.798 2300.37 286.488H2269.01C2267.16 298.077 2260.84 308.479 2251.41 315.465C2241.82 322.71 2229.92 326.323 2215.7 326.323C2199.98 326.323 2186.67 321.257 2175.8 311.109C2164.92 300.96 2159.15 285.745 2158.5 265.447H2300.35C2301.23 260.905 2301.65 255.518 2301.65 249.253C2301.65 234.359 2298.27 220.766 2291.47 208.455C2284.61 196.08 2274.43 185.871 2262.07 178.988C2249.25 171.643 2234.22 167.978 2216.98 167.978C2199.98 167.978 2184.9 171.643 2171.76 178.988C2158.62 186.334 2148.32 196.905 2140.89 210.735C2133.46 224.565 2129.75 240.726 2129.75 259.301C2129.75 277.876 2133.46 293.986 2140.89 307.698C2148.32 321.409 2158.62 331.93 2171.76 339.275C2184.9 346.621 2199.96 350.285 2217 350.285ZM2271.93 251.195H2158.5C2159.36 231.776 2165.29 217.034 2176.29 207.003C2187.28 196.973 2200.84 191.94 2216.98 191.94C2227.11 191.94 2236.49 194.102 2245.1 198.425C2253.71 202.748 2260.52 209.317 2265.46 218.182C2270.41 227.014 2272.56 238.024 2271.93 251.195ZM2426.05 348.022L2495.52 170.241H2463.86L2408.93 316.614L2353.36 170.241H2321.69L2391.17 348.022H2426.05Z" fill="#A0A1A3"/>
</svg>
